<?xml version="1.0" encoding="utf-8"?>
<!-- Generator: Adobe Illustrator 24.3.0, SVG Export Plug-In . SVG Version: 6.00 Build 0)  -->
<svg version="1.1" id="Layer_1" xmlns="http://www.w3.org/2000/svg" xmlns:xlink="http://www.w3.org/1999/xlink" x="0px" y="0px"
	 viewBox="0 0 100 100" style="enable-background:new 0 0 100 100;" xml:space="preserve">
<style type="text/css">
	.st0{fill:#231F20;}
</style>
<path class="st0" d="M39.3,14.7c0.2,0.3,0.3,0.6,0.5,0.7s0.4,0.3,0.6,0.3s0.5,0,0.8-0.1c0.4-0.1,0.8-0.3,0.9-0.6
	c0.2-0.3,0.2-0.7,0.1-1.1c-0.1-0.3-0.2-0.5-0.3-0.7s-0.4-0.3-0.6-0.4c-0.3-0.1-0.7-0.2-1.2-0.3c-0.5-0.1-0.9-0.2-1.2-0.4
	s-0.6-0.3-0.7-0.5c-0.2-0.2-0.3-0.5-0.4-0.8c-0.1-0.4-0.1-0.8,0-1.2C38,9.3,38.2,9,38.6,8.7c0.3-0.3,0.8-0.5,1.3-0.6
	C40.1,8,40.4,8,40.7,8s0.6-0.1,1.1-0.1l0.4,1.5l-0.6,0.1C41.4,9.3,41.2,9,41,8.9s-0.4-0.2-0.6-0.3s-0.4,0-0.7,0.1
	c-0.2,0.1-0.5,0.2-0.6,0.3c-0.2,0.1-0.3,0.3-0.4,0.5c-0.1,0.2-0.1,0.4,0,0.7c0.1,0.3,0.2,0.5,0.3,0.6c0.1,0.2,0.3,0.3,0.6,0.4
	c0.2,0.1,0.6,0.2,1,0.3c0.5,0.1,1,0.3,1.3,0.4s0.6,0.3,0.8,0.6c0.2,0.2,0.4,0.5,0.5,0.9c0.1,0.4,0.1,0.8,0.1,1.1S43.2,15,43,15.2
	s-0.4,0.4-0.7,0.6c-0.3,0.2-0.6,0.3-1,0.4c-0.6,0.1-1.3,0.2-2.1,0.2l-0.4-1.6L39.3,14.7z"/>
<path class="st0" d="M49.5,7.1l0.1,1.6l-0.6,0C49,8.4,48.8,8.2,48.7,8s-0.3-0.3-0.5-0.4c-0.2-0.1-0.4-0.1-0.7-0.1
	c-0.4,0-0.7,0.2-1,0.5c-0.3,0.3-0.5,0.7-0.7,1.3c-0.1,0.5-0.2,1.2-0.1,2c0.1,0.8,0.2,1.4,0.4,1.9c0.2,0.5,0.4,0.9,0.7,1.2
	s0.7,0.4,1.1,0.3c0.3,0,0.6-0.1,0.8-0.2s0.4-0.3,0.5-0.5c0.1-0.2,0.2-0.5,0.3-0.9l0.6,0l0.1,1.7c-0.4,0.1-0.7,0.2-1.1,0.3
	c-0.4,0.1-0.8,0.1-1.3,0.2c-1,0.1-1.8-0.2-2.3-0.8c-0.6-0.6-0.9-1.6-1-2.9c-0.1-0.8,0-1.6,0.2-2.2c0.2-0.6,0.6-1.2,1.1-1.5
	C46.2,7.2,46.8,7,47.5,7c0.4,0,0.7,0,1,0C48.8,7,49.1,7,49.5,7.1z"/>
<path class="st0" d="M53.3,11.6l-0.2,2c0,0.3,0,0.5,0,0.6c0,0.1,0,0.2,0.1,0.3c0,0.1,0.1,0.1,0.2,0.2c0.1,0,0.2,0.1,0.4,0.2l0,0.3
	l-2.5-0.3l0-0.3c0.2,0,0.4-0.1,0.5-0.1c0.1-0.1,0.2-0.2,0.2-0.3s0.1-0.3,0.1-0.6l0.6-5c0-0.3,0-0.5,0-0.6c0-0.1,0-0.2-0.1-0.3
	c0-0.1-0.1-0.1-0.2-0.2c-0.1,0-0.2-0.1-0.4-0.2l0-0.3l2.9,0.3c0.9,0.1,1.6,0.4,2,0.7c0.4,0.4,0.6,0.9,0.5,1.6
	c-0.1,0.5-0.3,1-0.6,1.3c-0.3,0.3-0.8,0.6-1.4,0.7l0,0c0.2,0.1,0.4,0.3,0.6,0.5c0.1,0.2,0.3,0.5,0.5,0.9l0.4,1
	c0.1,0.3,0.2,0.5,0.3,0.7c0.1,0.2,0.2,0.3,0.3,0.4c0.1,0.1,0.2,0.2,0.4,0.2l0,0.3l-1.6-0.2c-0.1-0.2-0.2-0.5-0.3-0.7
	c-0.1-0.3-0.2-0.5-0.3-0.8l-0.4-1c-0.1-0.3-0.2-0.5-0.3-0.7s-0.2-0.3-0.2-0.3c-0.1-0.1-0.2-0.1-0.3-0.1c-0.1,0-0.2-0.1-0.4-0.1
	L53.3,11.6z M53.7,7.7l-0.4,3.5l0.7,0.1c0.3,0,0.6,0,0.8,0c0.2,0,0.4-0.1,0.6-0.2c0.2-0.1,0.4-0.3,0.5-0.5s0.2-0.5,0.3-0.9
	c0-0.4,0-0.7-0.1-0.9s-0.3-0.5-0.5-0.6c-0.2-0.2-0.6-0.3-1-0.3C54.2,7.7,54,7.7,53.7,7.7z"/>
<path class="st0" d="M60.8,16.8c-0.4-0.1-0.8-0.4-1.1-0.6s-0.6-0.6-0.7-1c-0.2-0.4-0.2-0.9-0.2-1.4c0-0.5,0.1-1.1,0.4-1.8
	c0.3-0.8,0.6-1.5,1.1-2c0.4-0.5,1-0.8,1.5-1c0.6-0.2,1.2-0.1,1.8,0.1c0.7,0.2,1.2,0.5,1.5,1c0.4,0.4,0.6,1,0.6,1.6
	c0,0.6-0.1,1.4-0.3,2.2c-0.3,0.9-0.7,1.6-1.1,2.1c-0.5,0.5-1,0.8-1.5,1C62.1,17,61.5,17,60.8,16.8z M60.3,12.2
	c-0.4,1.1-0.5,2.1-0.4,2.8c0.1,0.7,0.5,1.2,1.2,1.4c0.4,0.1,0.8,0.1,1.2,0c0.4-0.2,0.7-0.5,1-0.9c0.3-0.5,0.6-1,0.8-1.7
	c0.3-0.8,0.4-1.5,0.4-2.1c0-0.6-0.1-1-0.3-1.4c-0.2-0.3-0.5-0.6-0.9-0.7c-0.3-0.1-0.6-0.1-0.9,0c-0.3,0.1-0.6,0.2-0.8,0.5
	c-0.3,0.2-0.5,0.5-0.7,0.9C60.7,11.3,60.5,11.7,60.3,12.2z"/>
<path class="st0" d="M66.7,18.6l1.3,0.8c0.1,0.1,0.3,0.1,0.4,0.2s0.2,0.1,0.3,0.1s0.2,0,0.3,0c0.1,0,0.2-0.1,0.3-0.2
	c0.1-0.1,0.2-0.2,0.4-0.3c0.1-0.1,0.3-0.3,0.6-0.6l0.5,0.3l-1.3,2l-4.6-2.6l0.1-0.2c0.2,0.1,0.4,0.1,0.5,0.1c0.1,0,0.2-0.1,0.3-0.2
	s0.2-0.3,0.3-0.5l2.5-4.4c0.1-0.2,0.2-0.4,0.3-0.5c0-0.1,0.1-0.2,0.1-0.3s0-0.2-0.1-0.2c0-0.1-0.1-0.2-0.3-0.3l0.1-0.3l2.2,1.2
	l-0.1,0.2c-0.2,0-0.3-0.1-0.4-0.1c-0.1,0-0.2,0-0.2,0c-0.1,0-0.1,0.1-0.2,0.2c-0.1,0.1-0.2,0.3-0.3,0.5L66.7,18.6z"/>
<path class="st0" d="M71.9,22l1.2,1c0.1,0.1,0.2,0.2,0.3,0.2c0.1,0.1,0.2,0.1,0.3,0.1c0.1,0,0.2,0,0.3,0c0.1,0,0.2,0,0.3-0.1
	s0.3-0.1,0.4-0.2c0.2-0.1,0.4-0.3,0.7-0.5l0.5,0.4l-1.6,1.7l-4.1-3.3l0.2-0.2c0.2,0.1,0.4,0.2,0.5,0.1c0.1,0,0.2-0.1,0.3-0.1
	s0.3-0.3,0.4-0.5l3.2-3.9c0.2-0.2,0.3-0.4,0.4-0.5c0.1-0.1,0.1-0.2,0.1-0.3c0-0.1,0-0.2,0-0.2s-0.1-0.2-0.2-0.3l0.2-0.2l1.9,1.6
	L77,16.9c-0.2-0.1-0.3-0.1-0.4-0.1s-0.2,0-0.2,0c-0.1,0-0.2,0.1-0.3,0.2s-0.2,0.2-0.4,0.5L71.9,22z"/>
<path class="st0" d="M82.8,22l3.7,5.1l-1.6,1.2l-0.3-0.5c0.2-0.3,0.4-0.5,0.5-0.7c0.1-0.2,0.2-0.3,0.2-0.5c0-0.1,0-0.3,0-0.4
	c0-0.1-0.1-0.3-0.2-0.4l-0.4-0.6l-4.8,3.5c-0.2,0.1-0.3,0.3-0.4,0.4c-0.1,0.1-0.2,0.2-0.2,0.3c0,0.1,0,0.2,0,0.3s0.1,0.2,0.1,0.4
	L79,30.4l-1.6-2.2l0.2-0.2c0.1,0.1,0.2,0.1,0.3,0.2c0.1,0.1,0.2,0.1,0.2,0.1c0.1,0,0.1,0,0.2,0c0.1,0,0.2,0,0.3-0.1s0.3-0.2,0.4-0.3
	l4.8-3.5l-0.4-0.6c-0.1-0.1-0.2-0.3-0.3-0.3c-0.1-0.1-0.2-0.1-0.4-0.1c-0.1,0-0.3,0-0.5,0.1c-0.2,0.1-0.5,0.1-0.8,0.3l-0.3-0.5
	L82.8,22z"/>
<path class="st0" d="M81.6,35.2c-0.2-0.4-0.3-0.8-0.3-1.3c0-0.4,0.1-0.8,0.2-1.2c0.2-0.4,0.5-0.8,0.9-1.1s0.9-0.7,1.6-1
	c0.8-0.4,1.5-0.6,2.2-0.6s1.3,0.1,1.8,0.4s0.9,0.8,1.2,1.4c0.3,0.6,0.4,1.2,0.3,1.8c-0.1,0.6-0.3,1.1-0.8,1.5
	c-0.4,0.5-1,0.9-1.8,1.2c-0.8,0.4-1.6,0.6-2.3,0.6s-1.3-0.1-1.8-0.5C82.3,36.3,81.9,35.8,81.6,35.2z M84.6,31.7
	c-1.1,0.5-1.8,1-2.3,1.6c-0.4,0.6-0.5,1.2-0.2,1.8c0.2,0.4,0.5,0.7,0.8,0.8s0.8,0.2,1.4,0.1c0.5-0.1,1.1-0.3,1.8-0.6
	c0.8-0.4,1.4-0.7,1.8-1.1c0.4-0.4,0.7-0.8,0.8-1.2c0.1-0.4,0.1-0.8-0.1-1.1c-0.1-0.3-0.3-0.6-0.6-0.7c-0.3-0.2-0.6-0.3-0.9-0.3
	c-0.3,0-0.7,0-1.1,0.1S85.1,31.5,84.6,31.7z"/>
<path class="st0" d="M91.9,40l1,6.3l-2,0.3L90.9,46c0.3-0.1,0.6-0.3,0.7-0.4s0.3-0.2,0.4-0.3c0.1-0.1,0.1-0.2,0.2-0.3
	c0-0.1,0-0.3,0-0.5L92,43.7l-5.9,1c-0.2,0-0.4,0.1-0.5,0.1s-0.2,0.1-0.3,0.2c-0.1,0.1-0.1,0.1-0.2,0.2c0,0.1-0.1,0.2-0.1,0.4l-0.3,0
	l-0.4-2.6l0.3,0c0,0.1,0.1,0.2,0.1,0.3c0,0.1,0.1,0.2,0.1,0.2c0.1,0,0.1,0.1,0.2,0.1c0.1,0,0.2,0,0.3,0s0.3,0,0.5-0.1l5.9-1
	l-0.1-0.7c0-0.2-0.1-0.3-0.1-0.4c-0.1-0.1-0.1-0.2-0.3-0.3S91,41.1,90.8,41s-0.5-0.1-0.8-0.1l-0.1-0.6L91.9,40z"/>
<path class="st0" d="M84.9,51.2c0-0.5,0.1-0.9,0.3-1.3s0.4-0.7,0.8-1c0.3-0.3,0.8-0.5,1.3-0.6s1.1-0.2,1.8-0.2
	c0.9,0,1.6,0.2,2.2,0.5c0.6,0.3,1.1,0.7,1.4,1.2c0.3,0.5,0.5,1.1,0.4,1.7c0,0.7-0.2,1.3-0.5,1.7c-0.3,0.5-0.8,0.8-1.4,1
	c-0.6,0.2-1.3,0.3-2.2,0.3c-0.9,0-1.7-0.2-2.3-0.5s-1.1-0.7-1.4-1.2S84.9,51.9,84.9,51.2z M89.1,49.4c-1.2,0-2.1,0.1-2.8,0.4
	c-0.6,0.3-1,0.8-1,1.5c0,0.4,0.1,0.8,0.4,1.1c0.3,0.3,0.6,0.5,1.2,0.7c0.5,0.2,1.1,0.3,1.8,0.3c0.9,0,1.6,0,2.1-0.2
	c0.6-0.2,1-0.4,1.2-0.7c0.3-0.3,0.4-0.6,0.4-1c0-0.4-0.1-0.7-0.2-0.9c-0.2-0.3-0.4-0.5-0.7-0.7c-0.3-0.2-0.7-0.3-1.1-0.4
	S89.7,49.5,89.1,49.4z"/>
<path class="st0" d="M85.7,57.6c-0.2-0.1-0.4-0.1-0.5-0.1s-0.3,0-0.3,0c-0.1,0-0.2,0.1-0.2,0.2c-0.1,0.1-0.1,0.2-0.2,0.4L84.1,58
	l0.6-2.5l0.3,0.1c0,0.3,0,0.4,0.1,0.5c0.1,0.1,0.1,0.2,0.3,0.2s0.3,0.1,0.6,0.2l4.9,1.2c0.3,0.1,0.5,0.1,0.6,0.1c0.1,0,0.2,0,0.3,0
	c0.1,0,0.1-0.1,0.2-0.1c0.1-0.1,0.1-0.2,0.2-0.3l0.3,0.1l-0.7,2.8c-0.2,0.9-0.5,1.5-1,1.9c-0.4,0.4-1,0.4-1.7,0.3
	c-0.4-0.1-0.7-0.2-1-0.5c-0.3-0.2-0.5-0.5-0.6-0.8s-0.2-0.6-0.2-1c0-0.4,0-0.7,0.1-1.1c0.1-0.4,0.2-0.7,0.3-1L85.7,57.6z M88.1,58.2
	l-0.2,0.7c-0.1,0.4-0.1,0.8-0.1,1.1c0,0.3,0.2,0.6,0.4,0.8c0.2,0.2,0.6,0.4,1,0.5c0.3,0.1,0.6,0.1,0.8,0.1c0.2,0,0.4-0.1,0.6-0.2
	s0.3-0.3,0.4-0.5c0.1-0.2,0.2-0.4,0.2-0.7c0.1-0.4,0.2-0.7,0.2-0.9L88.1,58.2z"/>
<path class="st0" d="M84.3,62l-1.3-0.4l0.4-1.1l1.3,0.4L84.3,62z"/>
<path class="st0" d="M88.9,68.6l-3.2,5.5l-1.8-1l0.3-0.5c0.3,0.1,0.6,0.2,0.8,0.2c0.2,0,0.4,0,0.5,0c0.1,0,0.2-0.1,0.3-0.2
	c0.1-0.1,0.2-0.2,0.3-0.4l0.4-0.6l-5.2-3c-0.2-0.1-0.4-0.2-0.5-0.2s-0.2-0.1-0.3-0.1s-0.2,0-0.3,0.1s-0.2,0.2-0.3,0.3l-0.2-0.1
	l1.3-2.3l0.2,0.1c0,0.1-0.1,0.2-0.1,0.3s0,0.2,0,0.2s0,0.1,0.1,0.2c0,0.1,0.1,0.1,0.2,0.2c0.1,0.1,0.2,0.2,0.4,0.3l5.2,3l0.4-0.6
	c0.1-0.2,0.2-0.3,0.2-0.4c0-0.1,0-0.3,0-0.4s-0.1-0.3-0.3-0.5c-0.1-0.2-0.3-0.4-0.6-0.6l0.3-0.5L88.9,68.6z"/>
<path class="st0" d="M75.4,76.3C75.2,76.1,75.1,76,75,76c-0.1-0.1-0.2-0.1-0.2-0.1c-0.1,0-0.1,0-0.2,0c-0.1,0-0.1,0-0.2,0
	s-0.2,0.1-0.3,0.2l-0.2-0.2l1.6-1.8l0.2,0.2c-0.1,0.2-0.2,0.3-0.2,0.5c0,0.1,0,0.2,0.1,0.3c0.1,0.1,0.2,0.3,0.5,0.5l1.8,1.6l2.2-2.4
	L78.3,73c-0.2-0.2-0.3-0.3-0.4-0.4c-0.1-0.1-0.2-0.1-0.3-0.1c-0.1,0-0.2,0-0.3,0c-0.1,0-0.2,0.1-0.4,0.2l-0.2-0.2l1.6-1.8l0.2,0.2
	c-0.1,0.2-0.2,0.4-0.2,0.5s0,0.2,0.1,0.3s0.2,0.3,0.5,0.5l3.8,3.4c0.2,0.2,0.4,0.3,0.5,0.4c0.1,0.1,0.2,0.1,0.3,0.1
	c0.1,0,0.2,0,0.2,0s0.2-0.1,0.4-0.2l0.2,0.2l-1.6,1.8l-0.2-0.2c0.1-0.2,0.1-0.3,0.2-0.4c0-0.1,0-0.2,0-0.2c0-0.1-0.1-0.2-0.2-0.3
	c-0.1-0.1-0.2-0.2-0.4-0.4L80.5,75l-2.2,2.4l1.5,1.4c0.3,0.2,0.4,0.4,0.6,0.4s0.2,0.1,0.3,0.1c0.1,0,0.3-0.1,0.5-0.2l0.2,0.2
	l-1.6,1.8L79.6,81c0.1-0.2,0.2-0.4,0.2-0.5c0-0.1,0-0.2-0.1-0.3c-0.1-0.1-0.2-0.3-0.5-0.5L75.4,76.3z"/>
<path class="st0" d="M69.9,78.8l0.2,0.2c-0.1,0.1-0.2,0.3-0.3,0.4c0,0.1-0.1,0.2-0.1,0.3c0,0.1,0.1,0.2,0.1,0.3
	c0.1,0.1,0.2,0.2,0.3,0.3c0.1,0.1,0.3,0.2,0.4,0.3l0.6,0.5l2.2-1.6L73.2,79c-0.1-0.3-0.2-0.5-0.2-0.6c-0.1-0.1-0.1-0.3-0.2-0.4
	c-0.1-0.2-0.3-0.3-0.4-0.3c-0.2,0-0.4,0-0.6,0.1l-0.2-0.2l2-1.5l0.2,0.2c-0.2,0.2-0.2,0.4-0.2,0.6c0,0.3,0.1,0.6,0.2,1l1.9,6.7
	l-0.7,0.5l-5.5-4.1c-0.3-0.2-0.5-0.3-0.6-0.4c-0.2-0.1-0.3-0.1-0.4-0.1c-0.1,0-0.3,0-0.5,0.1l-0.2-0.2L69.9,78.8z M73.6,80l-2,1.4
	l3.1,2.4L73.6,80z"/>
<path class="st0" d="M64.3,85.4c-0.2-0.2-0.4-0.3-0.6-0.4c-0.2-0.1-0.3-0.3-0.5-0.4l-0.1,0c0.1,0.2,0.3,0.6,0.6,1.3s0.6,1.2,0.8,1.7
	l0.5,1.1c0.1,0.2,0.2,0.4,0.3,0.5c0.1,0.1,0.1,0.2,0.2,0.2s0.1,0.1,0.2,0.1c0.1,0,0.2,0,0.4,0l0.1,0.3l-1.9,0.9l-0.1-0.3
	c0.1-0.1,0.2-0.2,0.3-0.3c0.1-0.1,0.1-0.1,0.1-0.2s0-0.2,0-0.3c0-0.1-0.1-0.3-0.2-0.6l-2.7-6l0.7-0.3l5.2,3.7
	c0.3,0.2,0.6,0.4,0.7,0.5c0.1,0.1,0.3,0.2,0.4,0.3l0.1,0c-0.1-0.3-0.4-0.8-0.7-1.5c-0.3-0.7-0.7-1.4-1-2.1l-0.5-1.1
	c-0.1-0.2-0.2-0.4-0.3-0.5s-0.1-0.2-0.2-0.2c-0.1,0-0.1-0.1-0.2-0.1c-0.1,0-0.2,0-0.4,0l-0.1-0.3l2-0.9l0.1,0.3
	c-0.2,0.2-0.3,0.3-0.4,0.4c0,0.1,0,0.2,0,0.4s0.1,0.3,0.2,0.6l2.1,4.6c0.1,0.2,0.2,0.4,0.3,0.5c0.1,0.1,0.1,0.2,0.2,0.2
	c0.1,0,0.1,0.1,0.2,0.1c0.1,0,0.2,0,0.4,0l0.1,0.3l-1.7,0.7L64.3,85.4z"/>
<path class="st0" d="M59.4,88.3l-0.2,0c-0.1,0-0.3,0.1-0.4,0.2c-0.1,0.1-0.2,0.2-0.4,0.3c-0.1,0.2-0.3,0.4-0.5,0.8
	c-0.3,0.5-0.5,0.8-0.6,1c-0.1,0.3-0.2,0.5-0.2,0.6c0,0.1,0,0.2,0,0.3c0,0.2,0.1,0.3,0.2,0.3c0.1,0.1,0.2,0.1,0.4,0.1l0.1,0.3
	l-2.5,0.5l-0.1-0.3c0.1-0.1,0.2-0.1,0.3-0.2s0.2-0.2,0.3-0.4s0.2-0.4,0.4-0.7l1.5-2.6l-2.7-2.6c-0.3-0.3-0.5-0.5-0.7-0.6
	c-0.2-0.1-0.3-0.2-0.4-0.2s-0.3,0-0.4,0L53.5,85l2.5-0.5l0.1,0.3c-0.1,0-0.2,0.1-0.3,0.1c-0.1,0.1-0.1,0.1-0.1,0.2
	c0,0.1,0.1,0.1,0.1,0.2c0.1,0.1,0.2,0.2,0.3,0.3l1.8,1.7c0.2,0.2,0.4,0.3,0.4,0.4c0.1,0.1,0.2,0.1,0.3,0.1c0.1,0,0.2,0,0.3,0
	l0.3-0.1l-0.5-2.4c-0.1-0.3-0.1-0.4-0.1-0.6s-0.1-0.2-0.1-0.3c-0.1-0.1-0.1-0.1-0.2-0.1c-0.1,0-0.2,0-0.4-0.1l-0.1-0.3l2.4-0.5
	l0.1,0.3c-0.2,0.1-0.4,0.2-0.4,0.3c-0.1,0.1-0.1,0.2-0.1,0.4s0,0.4,0.1,0.6l1,5c0.1,0.3,0.1,0.5,0.1,0.6c0,0.1,0.1,0.2,0.2,0.3
	c0.1,0.1,0.1,0.1,0.2,0.1c0.1,0,0.2,0,0.4,0.1l0.1,0.3L59.4,92l-0.1-0.3c0.2-0.1,0.3-0.1,0.3-0.2s0.1-0.1,0.1-0.2c0-0.1,0-0.2,0-0.3
	c0-0.1,0-0.3-0.1-0.6L59.4,88.3z"/>
<path class="st0" d="M45.6,88.1l1.2,3.2c0.1,0.4,0.3,0.7,0.3,0.8c0.1,0.2,0.2,0.3,0.3,0.4c0.1,0.1,0.2,0.2,0.3,0.2l0,0.3l-2.5-0.3
	l0-0.3c0.4,0,0.6-0.1,0.6-0.4c0-0.1,0-0.2,0-0.4s-0.1-0.4-0.2-0.6l-0.9-2.4l-1.4,1.9C43.2,90.8,43,91,43,91.2
	c-0.1,0.2-0.1,0.3-0.2,0.5c0,0.1,0,0.3,0.1,0.3c0.1,0.1,0.2,0.2,0.4,0.2l0,0.3L41,92.2l0-0.3c0.2,0,0.3-0.1,0.4-0.2
	c0.1-0.1,0.3-0.2,0.4-0.4c0.1-0.2,0.4-0.4,0.7-0.8l2-2.5l0.2-1.9c0-0.2,0-0.4,0-0.5s0-0.3-0.1-0.3c0-0.1-0.1-0.2-0.2-0.2
	c-0.1-0.1-0.2-0.1-0.4-0.2l0-0.3l2.7,0.3l0,0.3c-0.2,0-0.3,0-0.4,0.1c-0.1,0-0.2,0.1-0.2,0.2S46,85.6,46,85.7c0,0.1-0.1,0.3-0.1,0.5
	L45.6,88.1z"/>
<path class="st0" d="M39.2,83.2c0.4,0.1,0.8,0.4,1.1,0.6c0.3,0.3,0.6,0.6,0.7,1s0.2,0.9,0.2,1.4S41.2,87.3,41,88
	c-0.3,0.8-0.6,1.5-1.1,2c-0.4,0.5-1,0.8-1.5,1c-0.6,0.2-1.2,0.1-1.8-0.1c-0.7-0.2-1.2-0.5-1.5-1s-0.6-1-0.6-1.6
	c0-0.6,0.1-1.4,0.3-2.2c0.3-0.9,0.7-1.6,1.1-2.1c0.5-0.5,1-0.8,1.5-1C38,83,38.6,83,39.2,83.2z M39.8,87.8c0.4-1.1,0.5-2.1,0.4-2.8
	c-0.1-0.7-0.5-1.2-1.2-1.4c-0.4-0.1-0.8-0.1-1.2,0.1c-0.4,0.2-0.7,0.5-1,0.9c-0.3,0.5-0.6,1-0.8,1.7c-0.3,0.8-0.4,1.5-0.4,2.1
	c0,0.6,0.1,1,0.3,1.4c0.2,0.3,0.5,0.6,0.9,0.7c0.3,0.1,0.6,0.1,0.9,0c0.3-0.1,0.6-0.2,0.8-0.5c0.3-0.2,0.5-0.5,0.7-0.9
	S39.6,88.3,39.8,87.8z"/>
<path class="st0" d="M28.7,81.3c0.2-0.4,0.4-0.7,0.7-0.9c0.2-0.2,0.4-0.4,0.7-0.5c0.2-0.1,0.5-0.2,0.7-0.2c0.2,0,0.5,0,0.8,0.1
	c0.3,0.1,0.6,0.2,0.9,0.4c0.4,0.2,0.7,0.5,1,0.7c0.2,0.3,0.4,0.6,0.5,0.9c0.1,0.3,0.1,0.6,0,1c-0.1,0.3-0.2,0.7-0.5,1.1l-1.9,3.3
	c-0.2,0.3-0.2,0.4-0.3,0.5s-0.1,0.2-0.1,0.3s0,0.1,0.1,0.2s0.1,0.2,0.3,0.3l-0.1,0.2l-2.1-1.2l0.1-0.2c0.2,0.1,0.4,0.1,0.5,0.1
	c0.1,0,0.2-0.1,0.3-0.2s0.2-0.3,0.4-0.6l2.1-3.6c0.2-0.3,0.3-0.6,0.4-0.9c0.1-0.3,0.1-0.5,0-0.7c-0.1-0.2-0.1-0.4-0.3-0.5
	s-0.3-0.3-0.6-0.5c-0.2-0.1-0.5-0.2-0.7-0.2s-0.4,0-0.7,0.1s-0.4,0.3-0.6,0.5s-0.4,0.5-0.6,1L27.6,85c-0.2,0.3-0.3,0.5-0.3,0.6
	c0,0.1,0,0.2,0,0.3c0,0.1,0.1,0.2,0.3,0.4l-0.1,0.2l-2-1.2l0.1-0.2c0.2,0.1,0.4,0.1,0.5,0.1s0.2-0.1,0.3-0.2
	c0.1-0.1,0.2-0.3,0.4-0.6L28.7,81.3z"/>
<path class="st0" d="M17.5,78.3l1.3-1.2l0.4,0.4c-0.1,0.2-0.2,0.5-0.3,0.6c-0.1,0.2-0.1,0.3-0.1,0.4c0,0.1,0,0.2,0.1,0.3
	c0.1,0.1,0.2,0.2,0.3,0.4l1.2,1.2l2.3-2.2l-0.9-0.9c-0.1-0.1-0.2-0.2-0.3-0.2s-0.2,0-0.4,0s-0.3,0.1-0.6,0.3L20.1,77l1.8-1.7
	l0.4,0.4c-0.1,0.2-0.2,0.4-0.3,0.6c0,0.1-0.1,0.3,0,0.4c0,0.1,0.1,0.2,0.2,0.3l0.9,0.9l1.6-1.6c0.2-0.2,0.3-0.3,0.4-0.4
	s0.1-0.2,0.1-0.3c0-0.1,0-0.2,0-0.3c0-0.1-0.1-0.2-0.2-0.4l0.2-0.2l1.8,1.8l-0.2,0.2c-0.2-0.1-0.4-0.2-0.5-0.2c-0.1,0-0.2,0-0.3,0.1
	s-0.3,0.2-0.5,0.4l-3.6,3.6c-0.2,0.2-0.3,0.3-0.4,0.4s-0.1,0.2-0.1,0.3s0,0.2,0,0.2c0,0.1,0.1,0.2,0.2,0.4l-0.2,0.2L17.5,78.3z"/>
<path class="st0" d="M21,69.5c0.3,0.4,0.4,0.8,0.5,1.2c0.1,0.4,0.1,0.8,0,1.2s-0.3,0.8-0.7,1.2c-0.3,0.4-0.8,0.8-1.4,1.2
	c-0.7,0.5-1.4,0.8-2.1,0.9s-1.3,0.1-1.8-0.2s-1-0.6-1.4-1.2c-0.4-0.6-0.6-1.1-0.6-1.7c0-0.6,0.2-1.1,0.5-1.6c0.4-0.5,0.9-1,1.6-1.5
	c0.8-0.5,1.5-0.8,2.2-0.9c0.7-0.1,1.3-0.1,1.8,0.2S20.7,69,21,69.5z M18.6,73.4c1-0.7,1.7-1.3,2-2c0.3-0.6,0.3-1.2-0.1-1.8
	c-0.2-0.4-0.6-0.6-0.9-0.7c-0.4-0.1-0.8-0.1-1.4,0.1c-0.5,0.2-1.1,0.4-1.6,0.8c-0.7,0.5-1.2,0.9-1.6,1.4c-0.4,0.5-0.6,0.9-0.6,1.3
	c0,0.4,0,0.8,0.3,1.1c0.2,0.3,0.4,0.5,0.7,0.6c0.3,0.1,0.6,0.2,0.9,0.1c0.3,0,0.7-0.1,1.1-0.3C17.8,74,18.2,73.7,18.6,73.4z"/>
<path class="st0" d="M14.8,65.5l1.8-0.7c0.3-0.1,0.4-0.2,0.6-0.3s0.2-0.1,0.2-0.2c0-0.1,0.1-0.1,0.1-0.2s0-0.2,0-0.4l0.3-0.1
	l0.9,2.3L18.4,66c-0.1-0.2-0.3-0.3-0.4-0.4c-0.1,0-0.2-0.1-0.4,0c-0.1,0-0.3,0.1-0.6,0.2l-4.7,1.9c-0.2,0.1-0.4,0.2-0.5,0.2
	c-0.1,0.1-0.2,0.1-0.2,0.2c0,0.1-0.1,0.1-0.1,0.2s0,0.2,0,0.4l-0.3,0.1l-1.1-2.7c-0.3-0.8-0.4-1.5-0.3-2.1c0.1-0.5,0.5-0.9,1.2-1.2
	c0.5-0.2,1-0.2,1.4-0.1c0.5,0.1,0.9,0.4,1.3,0.9l0,0c0-0.3,0.1-0.5,0.2-0.7s0.3-0.5,0.6-0.8l0.7-0.8c0.2-0.2,0.4-0.4,0.5-0.6
	c0.1-0.2,0.2-0.3,0.2-0.4c0-0.1,0-0.3,0-0.5l0.3-0.1l0.6,1.5c-0.1,0.2-0.3,0.4-0.5,0.6c-0.2,0.2-0.3,0.4-0.5,0.6L15,63.3
	c-0.2,0.3-0.4,0.5-0.5,0.6c-0.1,0.1-0.2,0.3-0.2,0.4c0,0.1,0,0.2,0,0.3c0,0.1,0.1,0.2,0.1,0.4L14.8,65.5z M11.1,67l3.2-1.3L14,65.1
	c-0.1-0.3-0.3-0.6-0.4-0.7c-0.1-0.2-0.3-0.3-0.5-0.4c-0.2-0.1-0.4-0.2-0.7-0.2c-0.3,0-0.6,0.1-0.9,0.2c-0.3,0.1-0.6,0.3-0.8,0.5
	s-0.3,0.5-0.3,0.7c0,0.3,0,0.6,0.2,1C10.9,66.6,11,66.8,11.1,67z"/>
<path class="st0" d="M11.9,55.5l2-0.2c0.3,0,0.5-0.1,0.6-0.1s0.2-0.1,0.3-0.1c0.1,0,0.1-0.1,0.1-0.2c0-0.1,0.1-0.2,0.1-0.4l0.3,0
	l0.3,2.5l-0.3,0c-0.1-0.2-0.2-0.4-0.3-0.5c-0.1-0.1-0.2-0.1-0.3-0.1c-0.1,0-0.4,0-0.6,0l-5,0.6c-0.3,0-0.5,0.1-0.6,0.1
	c-0.1,0-0.2,0.1-0.3,0.1C8,57.2,8,57.2,8,57.3s-0.1,0.2-0.1,0.4l-0.3,0l-0.3-2.9c-0.1-0.9,0-1.6,0.3-2.1C7.8,52.3,8.3,52,9,51.9
	c0.5-0.1,1,0,1.4,0.3c0.4,0.3,0.7,0.7,1,1.2l0,0c0.1-0.2,0.2-0.5,0.4-0.7s0.4-0.4,0.8-0.7l0.9-0.6c0.3-0.2,0.5-0.3,0.6-0.5
	c0.1-0.1,0.2-0.2,0.3-0.4s0.1-0.3,0.1-0.5l0.3,0l0.2,1.6c-0.2,0.2-0.4,0.3-0.6,0.5c-0.2,0.2-0.4,0.3-0.7,0.5l-0.9,0.6
	c-0.3,0.2-0.5,0.3-0.6,0.5s-0.2,0.2-0.3,0.3c0,0.1-0.1,0.2-0.1,0.3c0,0.1,0,0.2,0,0.4L11.9,55.5z M7.9,55.9l3.5-0.4l-0.1-0.7
	c0-0.3-0.1-0.6-0.2-0.8c-0.1-0.2-0.2-0.4-0.3-0.6c-0.2-0.2-0.4-0.3-0.6-0.4S9.6,53,9.3,53.1c-0.4,0-0.7,0.1-0.9,0.3
	C8.2,53.5,8,53.7,7.9,54c-0.1,0.3-0.1,0.6-0.1,1.1C7.9,55.4,7.9,55.7,7.9,55.9z"/>
<path class="st0" d="M7.4,43.7l1.8,0.1l0,0.6c-0.2,0-0.4,0.1-0.5,0.1c-0.1,0.1-0.3,0.1-0.4,0.2c-0.1,0.1-0.2,0.1-0.3,0.2
	c-0.1,0.1-0.1,0.2-0.1,0.3c0,0.1-0.1,0.2-0.1,0.4l-0.2,1.8l3.1,0.3l0.1-1.2c0-0.2,0-0.3,0-0.4c0-0.1-0.1-0.2-0.2-0.3
	c-0.1-0.1-0.3-0.2-0.5-0.2l0-0.5l2.2,0.2l0,0.5c-0.2,0-0.4,0.1-0.5,0.1c-0.1,0.1-0.2,0.1-0.3,0.2s-0.1,0.2-0.1,0.4l-0.1,1.2l3.4,0.3
	l0.1-1.8c0-0.2,0-0.3,0-0.5s-0.1-0.2-0.1-0.3c-0.1-0.1-0.2-0.2-0.3-0.3c-0.1-0.1-0.3-0.1-0.4-0.2c-0.1-0.1-0.3-0.1-0.6-0.2l0-0.6
	l2,0.3l-0.4,5.4l-0.3,0c0-0.2-0.1-0.4-0.2-0.5c-0.1-0.1-0.2-0.2-0.3-0.2c-0.1,0-0.4-0.1-0.6-0.1l-5.1-0.4c-0.3,0-0.5,0-0.6,0
	s-0.2,0-0.3,0.1s-0.1,0.1-0.2,0.2c0,0.1-0.1,0.2-0.2,0.4l-0.3,0L7.4,43.7z"/>
<path class="st0" d="M16.6,39.6l-0.3-0.1c0-0.2,0-0.4,0-0.5c0-0.1-0.1-0.2-0.1-0.3c-0.1-0.1-0.2-0.1-0.3-0.2c-0.1,0-0.3-0.1-0.4-0.1
	c-0.2,0-0.3,0-0.5,0l-0.8,0l-0.7,2.6l0.5,0.3c0.3,0.2,0.4,0.3,0.6,0.4c0.1,0.1,0.3,0.1,0.4,0.2c0.2,0.1,0.4,0.1,0.5,0
	s0.3-0.2,0.4-0.5l0.3,0.1L15.3,44L15,44c0-0.2,0-0.4-0.2-0.7s-0.4-0.5-0.8-0.7l-5.6-4.1l0.3-0.9l6.8-0.1c0.3,0,0.6,0,0.7-0.1
	c0.2,0,0.3-0.1,0.4-0.1c0.1-0.1,0.2-0.2,0.3-0.3l0.3,0.1L16.6,39.6z M12.9,40.9l0.7-2.4l-3.9,0L12.9,40.9z"/>
<path class="st0" d="M17.5,36.6l-0.3-0.1c0-0.2,0.1-0.3,0.1-0.4c0-0.1,0-0.2-0.1-0.2c0-0.1-0.1-0.1-0.2-0.2
	c-0.1-0.1-0.3-0.2-0.5-0.3L12,33c-0.2-0.1-0.4-0.2-0.5-0.3c-0.1,0-0.2-0.1-0.3,0c-0.1,0-0.2,0-0.2,0.1c-0.1,0-0.2,0.1-0.3,0.3
	l-0.3-0.1l1.2-2.3c0.3-0.7,0.7-1.2,1.1-1.5c0.4-0.3,0.8-0.6,1.2-0.7c0.4-0.1,0.9-0.2,1.4-0.1s1,0.3,1.6,0.6c0.6,0.3,1.1,0.6,1.4,1
	s0.6,0.8,0.8,1.2c0.1,0.4,0.2,0.7,0.2,1.2c0,0.3-0.1,0.7-0.2,1.1c-0.1,0.4-0.3,0.9-0.6,1.4L17.5,36.6z M17.8,34.8
	c0.1-0.1,0.2-0.3,0.3-0.6c0.2-0.3,0.3-0.6,0.3-0.8c0.1-0.3,0.1-0.5,0.1-0.7c0-0.2-0.1-0.5-0.2-0.7c-0.1-0.2-0.3-0.5-0.4-0.7
	c-0.2-0.2-0.4-0.4-0.7-0.6s-0.6-0.4-0.9-0.6c-0.7-0.4-1.3-0.6-1.9-0.6c-0.6,0-1,0.1-1.4,0.3c-0.4,0.3-0.7,0.6-1,1.2
	c-0.1,0.2-0.2,0.5-0.3,0.7L17.8,34.8z"/>
<path class="st0" d="M21.2,27.7c0.2,0.2,0.4,0.3,0.5,0.3s0.2,0.1,0.3,0.1c0.1,0,0.2,0,0.2,0c0.1,0,0.2-0.1,0.3-0.2l0.2,0.2l-1.5,2
	L21,29.8c0.1-0.2,0.1-0.4,0.1-0.5S21.1,29.1,21,29s-0.3-0.2-0.5-0.4l-4.1-3c-0.2-0.2-0.4-0.3-0.5-0.3c-0.1-0.1-0.2-0.1-0.3-0.1
	c-0.1,0-0.2,0-0.2,0c-0.1,0-0.2,0.1-0.3,0.2l-0.2-0.2l1.5-2l0.2,0.2c-0.1,0.2-0.1,0.3-0.1,0.4c0,0.1,0,0.2,0,0.2
	c0,0.1,0.1,0.2,0.2,0.3c0.1,0.1,0.2,0.2,0.5,0.4L21.2,27.7z"/>
<path class="st0" d="M24.5,21.5c0.3,0.1,0.5,0.1,0.7,0.2c0.2,0.1,0.4,0.1,0.6,0.2l0.1-0.1c-0.2-0.2-0.5-0.5-1-1s-1-1-1.3-1.4
	l-0.9-0.9c-0.2-0.2-0.3-0.3-0.4-0.4s-0.2-0.1-0.3-0.1c-0.1,0-0.2,0-0.2,0s-0.2,0.1-0.4,0.2L21.2,18l1.5-1.5l0.2,0.2
	c-0.1,0.2-0.2,0.3-0.2,0.4c0,0.1,0,0.2,0,0.2s0.1,0.2,0.1,0.3c0.1,0.1,0.2,0.3,0.4,0.5l4.5,4.7l-0.5,0.5l-6.1-1.7
	c-0.4-0.1-0.7-0.2-0.8-0.2c-0.2-0.1-0.3-0.1-0.5-0.2l-0.1,0.1c0.2,0.2,0.6,0.6,1.2,1.1s1.1,1.1,1.6,1.7l0.8,0.9
	c0.2,0.2,0.3,0.3,0.4,0.4c0.1,0.1,0.2,0.1,0.3,0.1c0.1,0,0.2,0,0.3,0c0.1,0,0.2-0.1,0.4-0.2l0.2,0.2l-1.5,1.5l-0.2-0.2
	c0.1-0.2,0.2-0.4,0.2-0.5s0-0.2-0.1-0.3s-0.2-0.3-0.4-0.5l-3.5-3.7c-0.2-0.2-0.3-0.3-0.4-0.4c-0.1-0.1-0.2-0.1-0.3-0.1s-0.2,0-0.2,0
	c-0.1,0-0.2,0.1-0.4,0.2l-0.2-0.2l1.3-1.3L24.5,21.5z"/>
<path class="st0" d="M33.8,18.8l-0.3,0.3L32.9,19c-0.1,0.3-0.3,0.5-0.5,0.7c-0.2,0.2-0.4,0.4-0.8,0.6c-0.8,0.5-1.7,0.6-2.4,0.3
	c-0.8-0.3-1.5-1-2.2-2.2c-0.4-0.7-0.7-1.4-0.8-2.1c-0.1-0.7,0-1.3,0.2-1.9c0.3-0.6,0.7-1,1.3-1.4c0.3-0.2,0.6-0.4,0.9-0.5
	c0.3-0.1,0.7-0.3,1.1-0.4l0.9,1.4L30,13.9c-0.3-0.2-0.5-0.4-0.8-0.5c-0.2-0.1-0.4-0.1-0.7-0.1c-0.2,0-0.5,0.1-0.7,0.3
	c-0.4,0.2-0.6,0.5-0.7,0.9C27,15,27,15.4,27.1,16c0.1,0.5,0.4,1.1,0.8,1.8c0.4,0.7,0.8,1.2,1.2,1.5c0.4,0.4,0.8,0.6,1.2,0.7
	s0.8,0,1.1-0.2c0.4-0.2,0.6-0.5,0.7-0.8c0.1-0.3,0-0.6-0.2-1l-0.2-0.3c-0.2-0.3-0.3-0.5-0.4-0.6c-0.1-0.1-0.2-0.2-0.4-0.2
	c-0.1,0-0.3,0-0.5,0.1l-0.2-0.2l2-1.2l0.2,0.2c-0.1,0.1-0.2,0.2-0.2,0.3c0,0.1,0,0.2,0,0.3c0,0.1,0.1,0.2,0.1,0.3
	c0.1,0.1,0.1,0.3,0.3,0.5L33.8,18.8z"/>
<path class="st0" d="M35.6,16.6l0.6,1.2l-1.1,0.5l-0.6-1.2L35.6,16.6z"/>
</svg>
